<?xml version="1.0" encoding="utf-8"?>
<!-- Generator: Adobe Illustrator 19.2.0, SVG Export Plug-In . SVG Version: 6.00 Build 0)  -->
<svg version="1.1" id="Layer_1" xmlns="http://www.w3.org/2000/svg" xmlns:xlink="http://www.w3.org/1999/xlink" x="0px" y="0px"
	 viewBox="0 0 960 960" style="enable-background:new 0 0 960 960;" xml:space="preserve">
<style type="text/css">
	.st0{fill:#1A1A1A;}
	.st1{fill:#4D4D4D;}
	.st2{fill:#333333;}
	.st3{fill:#B3E2E5;}
	.st4{fill:#D3F1F2;}
	.st5{fill:#FFFFFF;}
	.st6{fill:#F2F2F2;}
	.st7{fill:#CC333F;}
	.st8{fill:#F7E277;}
	.st9{fill:#39B54A;}
	.st10{font-family:'MyriadPro-Bold';}
	.st11{font-size:38.1837px;}
	.st12{clip-path:url(#SVGID_2_);}
	.st13{fill:#4B9CB2;}
	.st14{opacity:0.1;fill:#FFFFFF;enable-background:new    ;}
	.st15{fill:#37808C;}
	.st16{fill:#FBB03B;}
	.st17{fill:#C1272D;}
	.st18{fill:#E5CD65;}
	.st19{font-size:49.7356px;}
	.st20{fill:#CCCCCC;}
	.st21{fill:#6DBCDB;}
	.st22{font-size:50.6622px;}
</style>
<g>
	<path class="st0" d="M631.8,715H304.9c-14.5,0-26.3-11.8-26.3-26.3V199.5c0-14.5,11.8-26.3,26.3-26.3h326.9
		c14.5,0,26.3,11.8,26.3,26.3v489.2C658,703.2,646.3,715,631.8,715z"/>
	<path class="st1" d="M632.4,667.2H304.3c-14.2,0-25.7-11.5-25.7-25.7V176.1c0-14.2,11.5-25.7,25.7-25.7h328.1
		c14.2,0,25.7,11.5,25.7,25.7v465.4C658,655.7,646.6,667.2,632.4,667.2z"/>
	<path class="st2" d="M618.2,362.5H319.4c-6.4,0-11.6-5.2-11.6-11.6V216.4c0-6.4,5.2-11.6,11.6-11.6h298.8c6.4,0,11.6,5.2,11.6,11.6
		V351C629.7,357.3,624.6,362.5,618.2,362.5z"/>
	<path class="st2" d="M618.2,667.2H319.4c-6.4,0-11.6-5.2-11.6-11.6V404.8c0-6.4,5.2-11.6,11.6-11.6h298.8c6.4,0,11.6,5.2,11.6,11.6
		v250.8C629.7,662,624.6,667.2,618.2,667.2z"/>
	<path class="st3" d="M597,338.3H344.1c-6.4,0-11.6-5.2-11.6-11.6v-85.1c0-6.4,5.2-11.6,11.6-11.6H597c6.4,0,11.6,5.2,11.6,11.6
		v85.1C608.5,333.1,603.3,338.3,597,338.3z"/>
	<path class="st4" d="M343.2,337.3v-85.1c0-6.4,5.2-11.6,11.6-11.6h252.8c0.3,0,0.6,0.1,0.9,0.1c-0.4-6-5.4-10.7-11.5-10.7H344.1
		c-6.4,0-11.6,5.2-11.6,11.6v85.1c0,6.1,4.7,11,10.7,11.5C343.2,337.9,343.2,337.6,343.2,337.3z"/>
	<rect x="380.8" y="111.6" class="st5" width="180.4" height="93.2"/>
	<path class="st0" d="M405,469h-63.5c-4.9,0-8.9-4-8.9-8.9v-25.9c0-4.9,4-8.9,8.9-8.9H405c4.9,0,8.9,4,8.9,8.9v25.9
		C413.9,465,409.9,469,405,469z"/>
	<path class="st0" d="M502.3,469h-63.5c-4.9,0-8.9-4-8.9-8.9v-25.9c0-4.9,4-8.9,8.9-8.9h63.5c4.9,0,8.9,4,8.9,8.9v25.9
		C511.2,465,507.2,469,502.3,469z"/>
	<path class="st0" d="M599.6,469h-63.5c-4.9,0-8.9-4-8.9-8.9v-25.9c0-4.9,4-8.9,8.9-8.9h63.5c4.9,0,8.9,4,8.9,8.9v25.9
		C608.5,465,604.5,469,599.6,469z"/>
	<path class="st0" d="M405,525.4h-63.5c-4.9,0-8.9-4-8.9-8.9v-25.9c0-4.9,4-8.9,8.9-8.9H405c4.9,0,8.9,4,8.9,8.9v25.9
		C413.9,521.4,409.9,525.4,405,525.4z"/>
	<path class="st0" d="M502.3,525.4h-63.5c-4.9,0-8.9-4-8.9-8.9v-25.9c0-4.9,4-8.9,8.9-8.9h63.5c4.9,0,8.9,4,8.9,8.9v25.9
		C511.2,521.4,507.2,525.4,502.3,525.4z"/>
	<path class="st0" d="M599.6,525.4h-63.5c-4.9,0-8.9-4-8.9-8.9v-25.9c0-4.9,4-8.9,8.9-8.9h63.5c4.9,0,8.9,4,8.9,8.9v25.9
		C608.5,521.4,604.5,525.4,599.6,525.4z"/>
	<path class="st0" d="M405,581.9h-63.5c-4.9,0-8.9-4-8.9-8.9v-25.9c0-4.9,4-8.9,8.9-8.9H405c4.9,0,8.9,4,8.9,8.9V573
		C413.9,577.9,409.9,581.9,405,581.9z"/>
	<path class="st0" d="M502.3,581.9h-63.5c-4.9,0-8.9-4-8.9-8.9v-25.9c0-4.9,4-8.9,8.9-8.9h63.5c4.9,0,8.9,4,8.9,8.9V573
		C511.2,577.9,507.2,581.9,502.3,581.9z"/>
	<path class="st0" d="M599.6,581.9h-63.5c-4.9,0-8.9-4-8.9-8.9v-25.9c0-4.9,4-8.9,8.9-8.9h63.5c4.9,0,8.9,4,8.9,8.9V573
		C608.5,577.9,604.5,581.9,599.6,581.9z"/>
	<path class="st0" d="M405,638.3h-63.5c-4.9,0-8.9-4-8.9-8.9v-25.9c0-4.9,4-8.9,8.9-8.9H405c4.9,0,8.9,4,8.9,8.9v25.9
		C413.9,634.3,409.9,638.3,405,638.3z"/>
	<path class="st0" d="M502.3,638.3h-63.5c-4.9,0-8.9-4-8.9-8.9v-25.9c0-4.9,4-8.9,8.9-8.9h63.5c4.9,0,8.9,4,8.9,8.9v25.9
		C511.2,634.3,507.2,638.3,502.3,638.3z"/>
	<path class="st0" d="M599.6,638.3h-63.5c-4.9,0-8.9-4-8.9-8.9v-25.9c0-4.9,4-8.9,8.9-8.9h63.5c4.9,0,8.9,4,8.9,8.9v25.9
		C608.5,634.3,604.5,638.3,599.6,638.3z"/>
	<path class="st6" d="M405,462.7h-63.5c-4.9,0-8.9-4-8.9-8.9v-25.9c0-4.9,4-8.9,8.9-8.9H405c4.9,0,8.9,4,8.9,8.9v25.9
		C413.9,458.7,409.9,462.7,405,462.7z"/>
	<path class="st6" d="M502.3,462.7h-63.5c-4.9,0-8.9-4-8.9-8.9v-25.9c0-4.9,4-8.9,8.9-8.9h63.5c4.9,0,8.9,4,8.9,8.9v25.9
		C511.2,458.7,507.2,462.7,502.3,462.7z"/>
	<path class="st6" d="M599.6,462.7h-63.5c-4.9,0-8.9-4-8.9-8.9v-25.9c0-4.9,4-8.9,8.9-8.9h63.5c4.9,0,8.9,4,8.9,8.9v25.9
		C608.5,458.7,604.5,462.7,599.6,462.7z"/>
	<path class="st6" d="M405,519.1h-63.5c-4.9,0-8.9-4-8.9-8.9v-25.9c0-4.9,4-8.9,8.9-8.9H405c4.9,0,8.9,4,8.9,8.9v25.9
		C413.9,515.1,409.9,519.1,405,519.1z"/>
	<path class="st6" d="M502.3,519.1h-63.5c-4.9,0-8.9-4-8.9-8.9v-25.9c0-4.9,4-8.9,8.9-8.9h63.5c4.9,0,8.9,4,8.9,8.9v25.9
		C511.2,515.1,507.2,519.1,502.3,519.1z"/>
	<path class="st6" d="M599.6,519.1h-63.5c-4.9,0-8.9-4-8.9-8.9v-25.9c0-4.9,4-8.9,8.9-8.9h63.5c4.9,0,8.9,4,8.9,8.9v25.9
		C608.5,515.1,604.5,519.1,599.6,519.1z"/>
	<path class="st6" d="M405,575.6h-63.5c-4.9,0-8.9-4-8.9-8.9v-25.9c0-4.9,4-8.9,8.9-8.9H405c4.9,0,8.9,4,8.9,8.9v25.9
		C413.9,571.6,409.9,575.6,405,575.6z"/>
	<path class="st6" d="M502.3,575.6h-63.5c-4.9,0-8.9-4-8.9-8.9v-25.9c0-4.9,4-8.9,8.9-8.9h63.5c4.9,0,8.9,4,8.9,8.9v25.9
		C511.2,571.6,507.2,575.6,502.3,575.6z"/>
	<path class="st6" d="M599.6,575.6h-63.5c-4.9,0-8.9-4-8.9-8.9v-25.9c0-4.9,4-8.9,8.9-8.9h63.5c4.9,0,8.9,4,8.9,8.9v25.9
		C608.5,571.6,604.5,575.6,599.6,575.6z"/>
	<path class="st7" d="M405,632h-63.5c-4.9,0-8.9-4-8.9-8.9v-25.9c0-4.9,4-8.9,8.9-8.9H405c4.9,0,8.9,4,8.9,8.9v25.9
		C413.9,628,409.9,632,405,632z"/>
	<path class="st8" d="M502.3,632h-63.5c-4.9,0-8.9-4-8.9-8.9v-25.9c0-4.9,4-8.9,8.9-8.9h63.5c4.9,0,8.9,4,8.9,8.9v25.9
		C511.2,628,507.2,632,502.3,632z"/>
	<path class="st9" d="M599.6,632h-63.5c-4.9,0-8.9-4-8.9-8.9v-25.9c0-4.9,4-8.9,8.9-8.9h63.5c4.9,0,8.9,4,8.9,8.9v25.9
		C608.5,628,604.5,632,599.6,632z"/>
	<text transform="matrix(1 0 0 1 362.6211 453.7075)" class="st2 st10 st11">1</text>
	<text transform="matrix(1 0 0 1 459.9131 453.7075)" class="st2 st10 st11">2</text>
	<text transform="matrix(1 0 0 1 558.5283 453.7075)" class="st2 st10 st11">3</text>
	<text transform="matrix(1 0 0 1 362.6211 509.8701)" class="st2 st10 st11">4</text>
	<text transform="matrix(1 0 0 1 459.9131 509.8701)" class="st2 st10 st11">5</text>
	<text transform="matrix(1 0 0 1 558.5283 509.8701)" class="st2 st10 st11">6</text>
	<text transform="matrix(1 0 0 1 362.6211 565.5908)" class="st2 st10 st11">7</text>
	<text transform="matrix(1 0 0 1 459.9131 565.5908)" class="st2 st10 st11">8</text>
	<text transform="matrix(1 0 0 1 558.5283 565.5908)" class="st2 st10 st11">9</text>
	<path class="st2" d="M658.7,650.7h-1.1V380.3h1.1c12.5,0,22.6,10.1,22.6,22.6v225.2C681.4,640.6,671.2,650.7,658.7,650.7z"/>
	<g>
		<g>
			<defs>
				<rect id="SVGID_1_" x="326.4" y="692" width="293.2" height="216.4"/>
			</defs>
			<clipPath id="SVGID_2_">
				<use xlink:href="#SVGID_1_"  style="overflow:visible;"/>
			</clipPath>
			<g class="st12">
				<path class="st13" d="M349,819.9l-3.2-377c-0.1-11.3,9-20.5,20.2-20.6l197-1.7c11.3-0.1,20.5,9,20.6,20.2l3.2,377
					c0.1,11.3-9,20.5-20.2,20.6l-197,1.7C358.4,840.2,349.1,831.2,349,819.9z"/>
				<path class="st14" d="M583.6,440.8c-0.1-11.3-9.3-20.3-20.6-20.2l-147.8,1.3c0,0,45.4,101.5,85.2,190.5s86.3,193,86.3,193
					L583.6,440.8z"/>
				
					<rect x="377.7" y="464.5" transform="matrix(1 -8.613788e-03 8.613788e-03 1 -4.6566 3.3299)" class="st15" width="13" height="155.6"/>
				
					<ellipse transform="matrix(0.3414 -0.9399 0.9399 0.3414 -471.8543 898.984)" class="st16" cx="405.6" cy="786.2" rx="24.5" ry="24.5"/>
				
					<ellipse transform="matrix(0.906 -0.4232 0.4232 0.906 -279.8294 242.1063)" class="st17" cx="405.3" cy="751.2" rx="24.5" ry="24.5"/>
				<rect x="518.8" y="670.8" class="st15" width="39.8" height="140"/>
				<path class="st18" d="M444.2,541.9v-61.7c0-5,4.1-9.1,9.1-9.1H490c5,0,9.1,4.1,9.1,9.1v61.7c0,5-4.1,9.1-9.1,9.1h-36.7
					C448.3,551,444.2,547,444.2,541.9z"/>
				<g>
					<path class="st8" d="M485.7,521.3c6,0,10.8-4.9,10.8-10.8c0-6-4.9-10.8-10.8-10.8h-28.2c-6,0-10.8,4.9-10.8,10.8
						c0,6,4.9,10.8,10.8,10.8H485.7z"/>
					<rect x="465.2" y="526.3" class="st8" width="13" height="24.7"/>
					<path class="st8" d="M485.7,526.3h-2.6V551h5.3c5.9,0,10.6-4.8,10.6-10.6v-21.5C496.3,523.4,491.3,526.3,485.7,526.3z"/>
					<path class="st8" d="M485.7,494.6c5.6,0,10.5,3,13.3,7.4v-20.3c0-5.9-4.8-10.6-10.6-10.6h-5.3v23.5H485.7z"/>
					<path class="st8" d="M460.2,526.3h-2.6c-5.6,0-10.5-3-13.3-7.4v21.5c0,5.9,4.8,10.6,10.6,10.6h5.3V526.3z"/>
					<path class="st8" d="M457.6,494.6h2.6v-23.5h-5.3c-5.9,0-10.6,4.8-10.6,10.6V502C447,497.6,452,494.6,457.6,494.6z"/>
					<rect x="465.2" y="471.1" class="st8" width="13" height="23.5"/>
				</g>
				<text transform="matrix(0 1 -1 0 403.2148 464.4761)" class="st15 st10 st19">xxx xxx xxx</text>
			</g>
		</g>
	</g>
	<rect x="401.3" y="135" class="st20" width="116.3" height="7.3"/>
	<rect x="401.3" y="157.5" class="st20" width="136" height="7.3"/>
	<rect x="401.3" y="180.1" class="st20" width="98.1" height="7.3"/>
	<text transform="matrix(1 0 0 1 422.1377 301.4038)" class="st21 st10 st22">xxxx</text>
</g>
</svg>
