<!-- <svg viewBox="0 0 24 24" version="1.1" xmlns="http://www.w3.org/2000/svg" xmlns:xlink="http://www.w3.org/1999/xlink" fill="#ffffff" stroke="#ffffff"><g id="SVGRepo_bgCarrier" stroke-width="0"></g><g id="SVGRepo_tracerCarrier" stroke-linecap="round" stroke-linejoin="round"></g><g id="SVGRepo_iconCarrier"> <title></title> <g fill="none" fill-rule="evenodd" id="页面-1" stroke="none" stroke-width="1"> <g id="导航图标" transform="translate(-325.000000, -80.000000)"> <g id="编组" transform="translate(325.000000, 80.000000)"> <polygon fill="#000000" fill-opacity="0.01" fill-rule="nonzero" id="路径" points="24 0 0 0 0 24 24 24"></polygon> <polygon id="路径" points="22 7 12 2 2 7 2 17 12 22 22 17" stroke="#000000" stroke-linejoin="round" stroke-width="1.5"></polygon> <line id="路径" stroke="#000000" stroke-linecap="round" stroke-linejoin="round" stroke-width="1.5" x1="2" x2="12" y1="7" y2="12"></line> <line id="路径" stroke="#000000" stroke-linecap="round" stroke-linejoin="round" stroke-width="1.5" x1="12" x2="12" y1="22" y2="12"></line> <line id="路径" stroke="#000000" stroke-linecap="round" stroke-linejoin="round" stroke-width="1.5" x1="22" x2="12" y1="7" y2="12"></line> <line id="路径" stroke="#000000" stroke-linecap="round" stroke-linejoin="round" stroke-width="1.5" x1="17" x2="7" y1="4.5" y2="9.5"></line> </g> </g> </g> </g></svg> -->

<svg version="1.1" id="Layer_1" xmlns="http://www.w3.org/2000/svg" xmlns:xlink="http://www.w3.org/1999/xlink" viewBox="0 0 512 512" xml:space="preserve" fill="#000000"><g id="SVGRepo_bgCarrier" stroke-width="0"></g><g id="SVGRepo_tracerCarrier" stroke-linecap="round" stroke-linejoin="round"></g><g id="SVGRepo_iconCarrier"> <circle style="fill:#324A5E;" cx="256" cy="256" r="256"></circle> <path style="fill:#2B3B4E;" d="M284.565,510.405c100.168-11.124,182.901-80.025,214.095-172.642L318.636,157.737l-1.203,3.639 l-55.686-49.611l-44.822,44.822l76.714,76.714L190.798,416.637L284.565,510.405z"></path> <path style="fill:#FC6F58;" d="M323.025,162.126L256,95.101l-67.025,67.025c-5.651,5.651-8.826,13.317-8.826,21.309v210.22 c0,16.644,13.493,30.136,30.136,30.136h91.431c16.644,0,30.136-13.493,30.136-30.136V183.437 C331.852,175.444,328.676,167.779,323.025,162.126z M256,161.377c-8.463,0-15.324-6.861-15.324-15.324s6.861-15.324,15.324-15.324 c8.463,0,15.324,6.861,15.324,15.324S264.463,161.377,256,161.377z"></path> <path style="fill:#F1543F;" d="M323.025,162.126L256,95.103v35.628c8.463,0,15.324,6.859,15.324,15.324s-6.859,15.324-15.324,15.324 v262.416h45.715c16.644,0,30.136-13.493,30.136-30.136V183.437C331.852,175.444,328.676,167.779,323.025,162.126z"></path> <rect x="245.973" y="281.211" transform="matrix(-0.7071 -0.7071 0.7071 -0.7071 200.4091 752.1795)" style="fill:#E6F3FF;" width="20.026" height="106.745"></rect> <polygon style="fill:#CFDBE6;" points="286.66,289.783 256,320.441 256,348.765 300.822,303.944 "></polygon> <path style="fill:#E6F3FF;" d="M228.123,323.672c-4.453,0-8.828-1.803-11.985-4.96c-3.143-3.158-4.96-7.518-4.96-11.985 c0-4.467,1.817-8.826,4.96-11.985c3.158-3.143,7.532-4.96,11.985-4.96c4.467,0,8.826,1.817,11.983,4.96 c3.16,3.158,4.961,7.532,4.961,11.985c0,4.467-1.801,8.826-4.961,11.985C236.949,321.87,232.589,323.672,228.123,323.672z"></path> <path style="fill:#CFDBE6;" d="M283.877,379.425c-4.453,0-8.828-1.803-11.971-4.96c-3.158-3.158-4.975-7.518-4.975-11.985 s1.817-8.826,4.975-11.985c3.143-3.158,7.518-4.96,11.971-4.96c4.467,0,8.826,1.801,11.983,4.96 c3.16,3.158,4.961,7.532,4.961,11.985c0,4.451-1.801,8.826-4.961,11.985C292.702,377.622,288.344,379.425,283.877,379.425z"></path> </g></svg>