<!DOCTYPE svg PUBLIC "-//W3C//DTD SVG 1.1//EN" "http://www.w3.org/Graphics/SVG/1.1/DTD/svg11.dtd">

<!-- Uploaded to: SVG Repo, www.svgrepo.com, Transformed by: SVG Repo Mixer Tools -->
<svg width="800px" height="800px" viewBox="0 0 60 60" version="1.1" xmlns="http://www.w3.org/2000/svg" xmlns:xlink="http://www.w3.org/1999/xlink" xmlns:sketch="http://www.bohemiancoding.com/sketch/ns" fill="#000000">

<g id="SVGRepo_bgCarrier" stroke-width="0"/>

<g id="SVGRepo_tracerCarrier" stroke-linecap="round" stroke-linejoin="round"/>

<g id="SVGRepo_iconCarrier"> <!-- Uploaded to: SVG Repo, www.svgrepo.com, Transformed by: SVG Repo Mixer Tools --> <title>POS</title> <desc>Created with Sketch.</desc> <defs> </defs> <g id="colored" stroke="none" stroke-width="1" fill="none" fill-rule="evenodd" sketch:type="MSPage"> <g id="Marketing_sliced" sketch:type="MSLayerGroup" transform="translate(-360.000000, -120.000000)"> </g> <g id="Marketing" sketch:type="MSLayerGroup" transform="translate(-352.000000, -120.000000)" stroke="#ffffff" stroke-width="2" stroke-linejoin="round"> <g id="POS" transform="translate(355.000000, 127.000000)" sketch:type="MSShapeGroup"> <rect id="Rectangle-1604" stroke-linecap="round" fill="" x="0" y="0" width="30" height="45"> </rect> <path d="M33,0 L33,45.011364" id="Line" stroke-linecap="round"> </path> <rect id="Rectangle-1605" stroke-linecap="round" fill="" x="36" y="22" width="19" height="26"> </rect> <rect id="Rectangle-1606" stroke-linecap="round" fill="" x="4" y="7" width="22" height="8"> </rect> <rect id="Rectangle-1607" stroke-linecap="round" fill="" x="48" y="28" width="1" height="1"> </rect> <path d="M41,27 L41,32" id="Line" stroke-linecap="square"> </path> <path d="M41,35 L41,38" id="Line" stroke-linecap="square"> </path> <rect id="Rectangle-1608" stroke-linecap="round" fill="" x="5" y="18" width="4" height="4"> </rect> <rect id="Rectangle-1609" stroke-linecap="round" fill="" x="13" y="18" width="4" height="4"> </rect> <rect id="Rectangle-1610" stroke-linecap="round" fill="" x="21" y="18" width="4" height="4"> </rect> <rect id="Rectangle-1613" stroke-linecap="round" fill="" x="5" y="26" width="4" height="4"> </rect> <rect id="Rectangle-1611" stroke-linecap="round" fill="" x="13" y="26" width="4" height="4"> </rect> <rect id="Rectangle-1612" stroke-linecap="round" fill="" x="21" y="26" width="4" height="4"> </rect> <rect id="Rectangle-1616" stroke-linecap="round" fill="" x="5" y="34" width="4" height="4"> </rect> <rect id="Rectangle-1614" stroke-linecap="round" fill="" x="13" y="34" width="4" height="4"> </rect> <rect id="Rectangle-1615" stroke-linecap="round" fill="" x="21" y="34" width="4" height="4"> </rect> </g> </g> </g> </g>

</svg>